# xmcd CD database file
#
# Track frame offsets:
#	150
#	39288
#	58420
#	87407
#	114004
#	138055
#	165076
#	195165
#	231195
#
# Disc length: 4055 seconds
#
# Revision: 0
# Processed by: cddbd v1.5.2PL0 Copyright (c) Steve Scherf et al.
# Submitted via: CDex 1.70beta2
#
DISCID=600fd509
DTITLE=Finn Peters Quintet - Su-Ling
DYEAR=2006
DGENRE=Jazz
TTITLE0=Al Dar Gazelli
TTITLE1=Gato
TTITLE2=Red Fish
TTITLE3=Ballad Boy
TTITLE4=Su-Ling
TTITLE5=N.R. Shackleton Goes to the Circus
TTITLE6=Nelson's Blood
TTITLE7=Fast Fish, Loose Fish
TTITLE8=Machine Gun
EXTD=YEAR: 2006
EXTT0=
EXTT1=
EXTT2=
EXTT3=
EXTT4=
EXTT5=
EXTT6=
EXTT7=
EXTT8=
PLAYORDER=
